<svg
  xmlns="http://www.w3.org/2000/svg"
  viewBox="0 0 100 100"
  width="100"
  height="100"
>
  <defs>
    <radialGradient id="peeekIris" cx="40%" cy="35%" r="75%">
      <stop offset="0%" stop-color="#9fe6ff" />
      <stop offset="55%" stop-color="#2aa8ff" />
      <stop offset="100%" stop-color="#0b2a6d" />
    </radialGradient>
  </defs>

  <rect x="0" y="0" width="100" height="100" rx="18" fill="#ecb608" />

  <ellipse cx="29" cy="66" rx="16" ry="4.5" fill="#000000" opacity="0.12" />
  <ellipse cx="71" cy="66" rx="16" ry="4.5" fill="#000000" opacity="0.12" />

  <path d="M11 46 C17 32, 41 32, 47 46 C41 62, 17 62, 11 46 Z" fill="#ffffff" stroke="#0b0b10" stroke-width="2" />
  <path d="M53 46 C59 32, 83 32, 89 46 C83 62, 59 62, 53 46 Z" fill="#ffffff" stroke="#0b0b10" stroke-width="2" />

  <path d="M12 44 C19 32, 39 31, 46 42" fill="none" stroke="#0b0b10" stroke-width="4" stroke-linecap="round" />
  <path d="M54 42 C61 31, 81 32, 88 44" fill="none" stroke="#0b0b10" stroke-width="4" stroke-linecap="round" />

  <circle cx="30" cy="48" r="9" fill="url(#peeekIris)" />
  <circle cx="70" cy="48" r="9" fill="url(#peeekIris)" />
  <circle cx="30" cy="49" r="4.5" fill="#05060a" />
  <circle cx="70" cy="49" r="4.5" fill="#05060a" />

  <circle cx="27" cy="45" r="2.2" fill="#ffffff" opacity="0.95" />
  <circle cx="67" cy="45" r="2.2" fill="#ffffff" opacity="0.95" />
  <circle cx="33" cy="51" r="1.2" fill="#ffffff" opacity="0.55" />
  <circle cx="73" cy="51" r="1.2" fill="#ffffff" opacity="0.55" />

  <path d="M16 36 L13.5 33.5" stroke="#0b0b10" stroke-width="2" stroke-linecap="round" />
  <path d="M21 34.5 L19 31.5" stroke="#0b0b10" stroke-width="2" stroke-linecap="round" />
  <path d="M26 33.8 L25 30.5" stroke="#0b0b10" stroke-width="2" stroke-linecap="round" />

  <path d="M84 36 L86.5 33.5" stroke="#0b0b10" stroke-width="2" stroke-linecap="round" />
  <path d="M79 34.5 L81 31.5" stroke="#0b0b10" stroke-width="2" stroke-linecap="round" />
  <path d="M74 33.8 L75 30.5" stroke="#0b0b10" stroke-width="2" stroke-linecap="round" />
</svg>
